<svg width="60" height="29" viewBox="0 0 60 29" fill="none" xmlns="http://www.w3.org/2000/svg">
<path d="M12.769 20.5972H10.7925V24H7.40088V20.5972H0.393066V18.1826L7.5918 7.58105H10.7925V17.9019H12.769V20.5972ZM7.40088 17.9019V15.1167C7.40088 14.8547 7.40462 14.5439 7.41211 14.1846C7.42708 13.8252 7.44206 13.4658 7.45703 13.1064C7.47201 12.7471 7.48698 12.4289 7.50195 12.1519C7.52441 11.8674 7.53939 11.6689 7.54688 11.5566H7.45703C7.31478 11.8636 7.16504 12.1631 7.00781 12.4551C6.85059 12.7396 6.66715 13.0391 6.45752 13.3535L3.44775 17.9019H7.40088ZM20.0576 13.5107C21.0609 13.5107 21.9518 13.7017 22.7305 14.0835C23.5166 14.4653 24.1343 15.0269 24.5835 15.7681C25.0327 16.5093 25.2573 17.4227 25.2573 18.5083C25.2573 19.6912 25.0103 20.7132 24.5161 21.5742C24.0295 22.4277 23.2995 23.0828 22.3262 23.5396C21.3604 23.9963 20.1549 24.2246 18.71 24.2246C17.849 24.2246 17.0366 24.1497 16.2729 24C15.5168 23.8577 14.8542 23.6369 14.2852 23.3374V20.3389C14.8542 20.6383 15.5355 20.8929 16.3291 21.1025C17.1302 21.3047 17.8826 21.4058 18.5864 21.4058C19.2752 21.4058 19.8555 21.3159 20.3271 21.1362C20.7988 20.9491 21.1545 20.6646 21.394 20.2827C21.6411 19.8934 21.7646 19.3993 21.7646 18.8003C21.7646 17.9992 21.4951 17.3853 20.9561 16.9585C20.417 16.5317 19.5897 16.3184 18.4741 16.3184C18.0474 16.3184 17.6019 16.3595 17.1377 16.4419C16.681 16.5243 16.2992 16.6066 15.9922 16.689L14.6108 15.9478L15.2285 7.58105H24.1343V10.5234H18.272L17.9688 13.7466C18.2233 13.6942 18.5003 13.6418 18.7998 13.5894C19.0993 13.5369 19.5186 13.5107 20.0576 13.5107Z" fill="#ED1C24"/>
<path d="M28.9727 24.1562C28.431 24.1562 27.957 24.1094 27.5508 24.0156C27.1497 23.9271 26.7878 23.7969 26.4648 23.625V22.0547C26.7982 22.2526 27.1732 22.4193 27.5898 22.5547C28.0117 22.6849 28.444 22.75 28.8867 22.75C29.2305 22.75 29.5299 22.7031 29.7852 22.6094C30.0404 22.5156 30.2383 22.3828 30.3789 22.2109C30.5247 22.0339 30.5977 21.8203 30.5977 21.5703C30.5977 21.388 30.556 21.2266 30.4727 21.0859C30.3893 20.9453 30.2461 20.8021 30.043 20.6562C29.8398 20.5104 29.5586 20.3359 29.1992 20.1328C28.819 19.9193 28.4961 19.7031 28.2305 19.4844C27.9701 19.2604 27.7695 19.013 27.6289 18.7422C27.4935 18.4714 27.4258 18.1536 27.4258 17.7891C27.4258 17.2422 27.5508 16.776 27.8008 16.3906C28.056 16 28.4154 15.7031 28.8789 15.5C29.3477 15.2917 29.8997 15.1875 30.5352 15.1875C31.0456 15.1875 31.5273 15.2474 31.9805 15.3672C32.4336 15.4818 32.8529 15.6432 33.2383 15.8516L32.6367 17.2109C32.3503 17.0495 32.0326 16.9115 31.6836 16.7969C31.3346 16.6771 30.9596 16.6172 30.5586 16.6172C30.1888 16.6172 29.8789 16.7031 29.6289 16.875C29.3841 17.0469 29.2617 17.2917 29.2617 17.6094C29.2617 17.776 29.3008 17.9271 29.3789 18.0625C29.4622 18.1927 29.6003 18.3255 29.793 18.4609C29.9857 18.5964 30.2487 18.7526 30.582 18.9297C30.9414 19.1276 31.2617 19.3359 31.543 19.5547C31.8242 19.7734 32.0456 20.026 32.207 20.3125C32.3685 20.5938 32.4492 20.9349 32.4492 21.3359C32.4492 21.9453 32.306 22.4609 32.0195 22.8828C31.7383 23.2995 31.3372 23.6172 30.8164 23.8359C30.2956 24.0495 29.681 24.1562 28.9727 24.1562ZM39.3945 24.1758C37.9004 24.1758 36.7344 23.751 35.8965 22.9014C35.0586 22.0459 34.6396 20.8037 34.6396 19.1748C34.6396 18.3018 34.7422 17.458 34.9473 16.6436C35.1523 15.8291 35.457 15.0791 35.8613 14.3936C36.2656 13.7021 36.7695 13.0986 37.373 12.583C37.9824 12.0674 38.6855 11.666 39.4824 11.3789C40.2793 11.0918 41.1729 10.9482 42.1631 10.9482C42.8252 10.9482 43.4463 11.0186 44.0264 11.1592C44.6064 11.2998 45.1865 11.5195 45.7666 11.8184L44.7559 14.0244C44.3281 13.79 43.8945 13.6025 43.4551 13.4619C43.0215 13.3213 42.5498 13.251 42.04 13.251C41.249 13.251 40.5605 13.4209 39.9746 13.7607C39.3945 14.0947 38.9111 14.54 38.5244 15.0967C38.1377 15.6475 37.8477 16.2598 37.6543 16.9336C37.4668 17.6074 37.373 18.2842 37.373 18.9639C37.373 19.5967 37.4609 20.1328 37.6367 20.5723C37.8125 21.0059 38.0908 21.334 38.4717 21.5566C38.8584 21.7793 39.3564 21.8906 39.9658 21.8906C40.2646 21.8906 40.5254 21.8701 40.748 21.8291C40.9707 21.7881 41.208 21.7383 41.46 21.6797L42.04 19.0518H39.6934L40.1855 16.7842H45.1338L43.71 23.4814C43.124 23.6807 42.5029 23.8477 41.8467 23.9824C41.1904 24.1113 40.373 24.1758 39.3945 24.1758ZM51.8398 24.1758C50.7969 24.1758 49.9209 23.9736 49.2119 23.5693C48.5088 23.165 47.9756 22.5967 47.6123 21.8643C47.249 21.126 47.0674 20.2646 47.0674 19.2803C47.0674 18.6123 47.126 17.9443 47.2432 17.2764C47.3662 16.6084 47.5479 15.9639 47.7881 15.3428C48.0342 14.7217 48.3418 14.1445 48.7109 13.6113C49.0859 13.0781 49.5254 12.6123 50.0293 12.2139C50.5332 11.8154 51.1045 11.5049 51.7432 11.2822C52.3818 11.0596 53.0908 10.9482 53.8701 10.9482C55.4287 10.9482 56.6006 11.3877 57.3857 12.2666C58.1768 13.1396 58.5723 14.3027 58.5723 15.7559C58.5723 16.4531 58.5137 17.1445 58.3965 17.8301C58.2852 18.5156 58.1094 19.1719 57.8691 19.7988C57.6348 20.4258 57.333 21.0059 56.9639 21.5391C56.6006 22.0664 56.1699 22.5293 55.6719 22.9277C55.1738 23.3203 54.6055 23.6279 53.9668 23.8506C53.334 24.0674 52.625 24.1758 51.8398 24.1758ZM52.0332 21.8906C52.3848 21.8906 52.7217 21.8262 53.0439 21.6973C53.3662 21.5684 53.668 21.3838 53.9492 21.1436C54.2305 20.8975 54.4854 20.5986 54.7139 20.2471C54.9482 19.8896 55.1475 19.4883 55.3115 19.043C55.4756 18.5918 55.6016 18.0967 55.6895 17.5576C55.7832 17.0186 55.8301 16.4414 55.8301 15.8262C55.8301 15.0352 55.6455 14.4023 55.2764 13.9277C54.9131 13.4531 54.3711 13.2158 53.6504 13.2158C53.2812 13.2158 52.9268 13.2891 52.5869 13.4355C52.2529 13.582 51.9424 13.79 51.6553 14.0596C51.374 14.3291 51.1191 14.6484 50.8906 15.0176C50.6621 15.3867 50.4658 15.7969 50.3018 16.248C50.1377 16.6992 50.0117 17.1797 49.9238 17.6895C49.8418 18.1992 49.8008 18.7295 49.8008 19.2803C49.8008 19.8486 49.8887 20.3291 50.0645 20.7217C50.2402 21.1084 50.4951 21.4014 50.8291 21.6006C51.1631 21.7939 51.5645 21.8906 52.0332 21.8906Z" fill="black"/>
</svg>
