<svg width="24" height="24" viewBox="0 0 24 24" fill="none" xmlns="http://www.w3.org/2000/svg">
<g clip-path="url(#clip0_527_4)">
<path d="M4.5 22C4.1 22 3.75 21.85 3.45 21.55C3.15 21.25 3 20.9 3 20.5V5C3 4.6 3.15 4.25 3.45 3.95C3.75 3.65 4.1 3.5 4.5 3.5H6.125V2H7.75V3.5H16.25V2H17.875V3.5H19.5C19.9 3.5 20.25 3.65 20.55 3.95C20.85 4.25 21 4.6 21 5V12.5H19.5V9.75H4.5V20.5H12.6V22H4.5ZM19 24C17.7833 24 16.7208 23.6208 15.8125 22.8625C14.9042 22.1042 14.3333 21.15 14.1 20H15.65C15.8667 20.7333 16.2792 21.3333 16.8875 21.8C17.4958 22.2667 18.2 22.5 19 22.5C19.9667 22.5 20.7917 22.1583 21.475 21.475C22.1583 20.7917 22.5 19.9667 22.5 19C22.5 18.0333 22.1583 17.2083 21.475 16.525C20.7917 15.8417 19.9667 15.5 19 15.5C18.5167 15.5 18.0667 15.5875 17.65 15.7625C17.2333 15.9375 16.8667 16.1833 16.55 16.5H18V18H14V14H15.5V15.425C15.95 14.9917 16.475 14.6458 17.075 14.3875C17.675 14.1292 18.3167 14 19 14C20.3833 14 21.5625 14.4875 22.5375 15.4625C23.5125 16.4375 24 17.6167 24 19C24 20.3833 23.5125 21.5625 22.5375 22.5375C21.5625 23.5125 20.3833 24 19 24ZM4.5 8.25H19.5V5H4.5V8.25ZM4.5 8.25V5V8.25Z" fill="#A3A3A3"/>
</g>
<defs>
<clipPath id="clip0_527_4">
<rect width="24" height="24" fill="white"/>
</clipPath>
</defs>
</svg>
